<?xml version="1.0" encoding="UTF-8" standalone="no"?>
<svg
   xmlns:dc="http://purl.org/dc/elements/1.1/"
   xmlns:cc="http://creativecommons.org/ns#"
   xmlns:rdf="http://www.w3.org/1999/02/22-rdf-syntax-ns#"
   xmlns:svg="http://www.w3.org/2000/svg"
   xmlns="http://www.w3.org/2000/svg"
   xmlns:sodipodi="http://sodipodi.sourceforge.net/DTD/sodipodi-0.dtd"
   xmlns:inkscape="http://www.inkscape.org/namespaces/inkscape"
   version="1.1"
   id="svg2"
   xml:space="preserve"
   width="470.66666"
   height="328"
   viewBox="0 0 470.66666 328"
   sodipodi:docname="logo_alcove.ai"><metadata
     id="metadata8"><rdf:RDF><cc:Work
         rdf:about=""><dc:format>image/svg+xml</dc:format><dc:type
           rdf:resource="http://purl.org/dc/dcmitype/StillImage" /></cc:Work></rdf:RDF></metadata><defs
     id="defs6"><clipPath
       clipPathUnits="userSpaceOnUse"
       id="clipPath18"><path
         d="M 0,246 H 353 V 0 H 0 Z"
         id="path16" /></clipPath></defs><sodipodi:namedview
     pagecolor="#ffffff"
     bordercolor="#666666"
     borderopacity="1"
     objecttolerance="10"
     gridtolerance="10"
     guidetolerance="10"
     inkscape:pageopacity="0"
     inkscape:pageshadow="2"
     inkscape:window-width="640"
     inkscape:window-height="480"
     id="namedview4" /><g
     id="g10"
     inkscape:groupmode="layer"
     inkscape:label="logo_alcove"
     transform="matrix(1.3333333,0,0,-1.3333333,0,328)"><g
       id="g12"><g
         id="g14"
         clip-path="url(#clipPath18)"><g
           id="g20"
           transform="translate(284.375,38.0834)"><path
             d="m 0,0 c -1.958,-0.125 -2.625,0 -3.75,0.833 -1.125,0.834 -5.083,5.75 -8.542,13.834 -3.458,8.083 -9.75,25.541 -9.75,25.541 0,0 15.625,5.375 29.5,12.167 2,-10.583 2.654,-21.787 2.834,-27.958 C 9.956,18.699 8.031,3.76 0,0 m -37.75,90.625 c 0,0 14.458,6.833 25.792,1.083 5.583,-3.75 11.25,-9.333 14.5,-18.041 3.25,-8.709 3.833,-14.5 3.833,-14.5 0,0 -19.958,-11.667 -30.333,-12.917 -2.75,7.708 -13.792,44.375 -13.792,44.375 M -79.063,32.229 -97.75,28.854 c 0,0 14.625,38.063 15.687,43.188 4.875,1.125 31.063,11.937 31.063,11.937 0,0 10.937,-39.562 11.5,-42.5 -1.688,-1.437 -39.563,-9.25 -39.563,-9.25 m -30.687,-4.875 c 0,0 -47.125,-6.5 -59.125,-2.187 l 3.625,27.375 20.188,2.562 c 0,0 38.312,6.938 47.937,12.188 -2.25,-8.438 -10.375,-36.813 -12.625,-39.938 m -47.292,-58.271 c -19.25,-2.333 -13.25,39.084 -13.25,39.084 0,0 16.917,-1 55.5,8.25 -7,-12.75 -23,-45 -42.25,-47.334 m -25.708,87.709 c -8.25,-0.5 -17,-1.25 -17,-1.25 0,0 -1.5,12 2.875,25.625 4.375,13.625 15.25,33.625 22.25,42.125 7,8.5 17.75,22.875 31.75,32.375 -10.25,-18 -19.625,-38.125 -19.625,-38.125 0,0 -20.625,-42.875 -20.25,-60.75 m -4.125,-26.188 C -188,30.667 -198,34.167 -199,50.979 l 14.625,0.5 c 0,0 -3.625,-14.5 -2.5,-20.875 m 65.167,137.646 10.833,4 10.667,1.5 c 0,0 7,-1.5 8.666,-3.5 0,0 5.542,-4.458 6.959,-12.417 1.416,-7.958 1,-19.125 1,-19.125 0,0 -0.834,-19.333 -4,-33.708 -3.167,-14.375 -7,-28.208 -7,-28.208 0,0 -3.709,-2.667 -20.625,-7.084 -16.917,-4.416 -40.792,-10.416 -48.334,-10.458 0,0 5.247,22.173 10,37.834 l 12,31.999 z m 14.833,21.417 c 2.396,3.104 5.896,6.395 7.583,7.291 1.688,0.896 3.417,2.167 8.875,1 5.375,-1.583 5.5,-3.916 10.375,-10.5 4.875,-6.583 13.167,-36.541 13.167,-36.541 l 14,-56.334 -24.833,-12.5 c -0.75,0.084 -0.834,1 -0.834,1 0,0 6.042,23.375 7,31.25 0.959,7.875 1.584,15.75 1.667,18.292 0.083,2.542 -0.125,10.458 -0.458,13.75 -0.334,3.292 -0.875,5.75 -0.875,5.75 0,0 -0.347,6.434 -5.334,14.667 -6.208,8.625 -10.658,9.423 -15.833,10.333 -6.438,0.896 -14.396,-0.521 -15.667,-0.917 -1.271,-0.396 -10.166,-3.208 -10.166,-3.208 0,0 8.875,13.708 11.333,16.667 m 170.563,-48.938 -1.313,10.875 -1.625,9.063 c 0,0 -11.375,-13.875 -14.25,-18.438 -2.625,-4.937 -1.562,-8.25 -1.562,-8.25 0,0 0.125,-0.812 2.562,-10.562 1.375,-11.625 0.25,-17.938 0,-20.125 -0.25,-2.188 -2.625,-9.563 -3.687,-11.688 -1.063,-2.125 -3.875,-6.5 -3.875,-6.5 0,0 -3.188,-4.25 -6.125,-7.812 -2.876,-2.688 -8.438,-7.25 -8.438,-7.25 l -8.688,-5.625 -0.437,0.312 -0.625,5.75 -2.312,10.125 c 0,0 -2.5,9.938 -6.938,15.75 -4.438,5.813 -8.75,8.688 -17,11.25 -8.25,2.563 -18.625,-1.25 -18.625,-1.25 l -11.438,-4.25 -8.187,26.5 -7.375,20.5 c 0,0 -9.438,23.438 -14.938,31.5 -5.5,8.063 -5.812,8.938 -10.25,14 -4.437,5.063 -10.562,5.813 -10.562,5.813 0,0 -2.688,0.5 -8.938,-1.813 -6.25,-2.312 -21.5,-16.75 -21.5,-16.75 0,0 -13.687,-16.375 -15.562,-19.062 -3.687,-2 -14.5,-10.688 -14.5,-10.688 l -14.062,-14 c 0,0 -10.125,-12.687 -14.563,-18.625 -4.437,-5.937 -11.375,-20 -11.375,-20 0,0 -7.75,-17.375 -9.562,-22.75 -1.813,-5.375 -4.188,-15.937 -4.563,-20.75 -6,0.313 -15.562,2.25 -27.062,6.5 -11.5,4.25 -21.375,18 -21.375,18 -3.563,6.625 -5.875,16.625 -6.563,21 -0.687,4.375 -0.5,9.75 -0.5,9.75 l 1.813,19 c 0,0 -14.938,-15 -16.438,-17.25 -1.5,-2.25 -1.75,-3.062 -1.75,-3.062 l -0.937,-3.5 v -2.313 c 0,0 -0.438,-11.25 2.437,-19.312 2.875,-8.063 8.25,-14.25 17.188,-20.438 15.187,-8.75 29.75,-11 29.75,-11 l 22,-3.062 -0.125,-17.75 c 0,0 0.812,-9.5 5.937,-15.938 5.125,-6.437 13.375,-8.812 15.563,-9.5 0.125,-4.312 0.375,-10.25 5,-22.5 4.625,-12.25 11.687,-14.875 18.687,-17.312 7,-2.438 15.5,1.125 23.875,6 8.375,4.875 19.25,19.437 19.25,19.437 l 8.625,12.625 8.25,13.5 34.687,7.75 19.438,5.25 10.812,3.063 8.751,-21.125 c 0,0 3.625,-7.688 9.125,-13.5 5.499,-5.813 13.25,-4.938 16.187,-4.5 3.313,0.968 8.084,4.501 9.186,5.572 1.103,1.07 2.175,2.732 2.474,3.176 0.299,0.445 1.957,3.394 1.979,3.442 0.326,0.72 3.616,7.6 5.799,15.622 2.312,8.5 2.187,20.063 2.187,20.063 l -0.438,13.5 0.313,0.312 13.125,8.5 8.125,6.875 8,8.688 6.313,8.75 c 0,0 6.687,11.437 9.562,24 2.875,12.562 1.063,26.437 1.063,26.437"
             style="fill:#231f20;fill-opacity:1;fill-rule:nonzero;stroke:none"
             id="path22" /></g></g></g></g></svg>
