<?xml version="1.0" encoding="iso-8859-1"?>
<!-- Generator: Adobe Illustrator 19.0.0, SVG Export Plug-In . SVG Version: 6.00 Build 0)  -->
<svg version="1.1" id="Capa_1" xmlns="http://www.w3.org/2000/svg" xmlns:xlink="http://www.w3.org/1999/xlink" x="0px" y="0px"
	 viewBox="0 0 512 512" style="enable-background:new 0 0 512 512;" xml:space="preserve">
<polygon style="fill:#A82645;" points="456,504.498 376,504.498 416,464.498 "/>
<polygon style="fill:#BF2E4A;" points="456,127.623 456,504.498 416,464.498 416,127.623 "/>
<polygon style="fill:#CE3A50;" points="416,127.623 416,464.498 376,504.498 376,127.623 "/>
<polygon style="fill:#ED5565;" points="276,127.623 356.01,127.623 376,127.623 376,504.498 56,504.498 56,127.623 156,127.623 
	236.01,127.623 "/>
<rect x="346" y="127.62" style="fill:#DA4453;" width="30" height="376.87"/>
<path d="M463.499,504.522c0-0.007,0.001-0.014,0.001-0.022V127.62c0-1.97-0.8-3.91-2.2-5.3c-1.39-1.4-3.32-2.2-5.3-2.2h-80h-12.49
	V67.5c0-0.013-0.002-0.026-0.002-0.039C363.486,30.259,333.214,0,296.008,0c-14.964,0-28.8,4.901-40.004,13.173
	C244.8,4.901,230.964,0,216,0c-37.22,0-67.501,30.281-67.501,67.501c0,0.007,0.001,0.013,0.001,0.02v52.6H56
	c-1.97,0-3.91,0.8-5.3,2.2c-1.4,1.39-2.2,3.33-2.2,5.3V374.5c0,4.13,3.36,7.5,7.5,7.5s7.5-3.37,7.5-7.5V135.12h85v42.499
	c0,4.14,3.36,7.5,7.5,7.5s7.5-3.36,7.5-7.5V135.12h105v42.499c0,4.14,3.36,7.5,7.5,7.5c4.13,0,7.5-3.36,7.5-7.5V135.12h85V244.5v30
	V497h-305v-92.5c0-4.14-3.36-7.5-7.5-7.5s-7.5,3.36-7.5,7.5v100c0,1.97,0.8,3.91,2.2,5.3c1.39,1.4,3.33,2.2,5.3,2.2h320h80
	c1.919,0,3.839-0.732,5.303-2.197c1.267-1.267,1.984-2.875,2.154-4.529c0.002-0.012,0.004-0.025,0.005-0.037
	C463.486,504.999,463.498,504.761,463.499,504.522z M163.499,67.487C163.507,38.544,187.055,15,216,15
	c10.62,0,20.507,3.179,28.778,8.622c-10.13,11.809-16.271,27.136-16.271,43.879c0,0.02,0.003,0.039,0.003,0.058v52.561H163.5V67.5
	C163.5,67.496,163.499,67.492,163.499,67.487z M243.51,120.12V67.5c0-0.013-0.002-0.025-0.002-0.038
	c0.01-12.92,4.719-24.755,12.496-33.907c7.782,9.158,12.493,21.002,12.497,33.932c0,0.004,0,0.009,0,0.013v52.62
	C268.501,120.12,243.51,120.12,243.51,120.12z M283.5,67.521c0-0.007,0.001-0.013,0.001-0.02c0-16.743-6.141-32.069-16.271-43.879
	C275.501,18.179,285.388,15,296.008,15c28.949,0,52.501,23.552,52.501,52.501c0,0.007,0.001,0.013,0.001,0.02v52.6H283.5V67.521z
	 M448.5,486.393l-25.002-25.004V135.12H448.5V486.393z M383.5,274.5v-30V135.12h24.998v326.27l-24.998,25V274.5z M415.998,475.103
	L437.894,497h-43.792L415.998,475.103z"/>
<g>
</g>
<g>
</g>
<g>
</g>
<g>
</g>
<g>
</g>
<g>
</g>
<g>
</g>
<g>
</g>
<g>
</g>
<g>
</g>
<g>
</g>
<g>
</g>
<g>
</g>
<g>
</g>
<g>
</g>
</svg>
